<?xml version="1.0" standalone="no"?>
<!DOCTYPE svg PUBLIC "-//W3C//DTD SVG 20010904//EN"
 "http://www.w3.org/TR/2001/REC-SVG-20010904/DTD/svg10.dtd">
<svg version="1.0" xmlns="http://www.w3.org/2000/svg"
 width="512.000000pt" height="512.000000pt" viewBox="0 0 512.000000 512.000000"
 preserveAspectRatio="xMidYMid meet">

<g transform="translate(0.000000,512.000000) scale(0.100000,-0.100000)"
fill="#000000" stroke="none">
<path d="M3404 5110 c-102 -21 -194 -95 -238 -189 -19 -42 -21 -64 -22 -266
-1 -245 -8 -286 -69 -412 -51 -103 -136 -173 -300 -245 -71 -32 -206 -68 -251
-68 -31 0 -33 3 -54 68 -43 131 -144 292 -228 362 -50 42 -163 96 -242 116
-40 11 -109 17 -180 18 -105 1 -120 -1 -165 -25 -57 -29 -110 -92 -124 -147
-5 -20 -28 -271 -50 -557 l-41 -520 -359 -865 -359 -864 -244 -209 c-308 -263
-358 -313 -401 -395 -53 -101 -71 -173 -71 -282 0 -160 39 -255 185 -447 104
-136 162 -168 334 -179 311 -22 727 89 1020 272 101 64 3022 2223 3132 2316
221 186 382 411 430 600 15 57 16 75 5 125 -16 77 -51 124 -147 198 -109 85
-180 174 -269 343 -171 321 -380 609 -590 811 -59 56 -70 63 -99 59 -17 -3
-39 -8 -49 -12 -11 -5 -33 9 -77 51 -60 56 -61 59 -50 89 18 46 -4 79 -105
156 -121 91 -217 120 -322 98z m1291 -1571 c30 -37 85 -91 122 -121 128 -102
136 -112 130 -164 -12 -108 -149 -318 -303 -464 -110 -104 -161 -143 -167
-127 -3 6 -62 149 -131 317 -70 167 -129 321 -132 342 -8 49 11 125 44 170 15
21 90 84 166 142 l140 104 39 -66 c21 -37 63 -96 92 -133z m-491 -662 c71
-171 129 -317 130 -324 1 -6 -325 -253 -724 -548 -832 -614 -750 -574 -705
-349 65 322 201 625 403 898 94 127 306 339 434 434 98 74 304 202 323 202 5
0 68 -141 139 -313z m-1398 -939 c-60 -208 -106 -453 -106 -560 l0 -46 -590
-436 c-649 -480 -652 -482 -795 -553 -235 -118 -535 -184 -780 -171 -106 6
-144 23 -188 85 l-27 38 137 6 c194 9 318 38 502 116 345 147 713 443 1047
843 180 216 341 374 539 527 61 47 249 173 259 173 4 0 5 -10 2 -22z"/>
<path d="M3821 2774 c-26 -32 -26 -62 -2 -183 20 -103 46 -141 97 -141 30 0
84 50 84 77 0 33 -30 197 -42 226 -21 54 -101 66 -137 21z"/>
<path d="M3511 2547 c-45 -22 -50 -59 -29 -182 22 -125 40 -155 94 -155 46 0
63 9 80 42 13 26 13 39 -5 138 -23 125 -32 147 -67 160 -33 13 -44 12 -73 -3z"/>
</g>
</svg>
